<svg width="26" height="26" viewBox="0 0 26 26" fill="none" xmlns="http://www.w3.org/2000/svg">
<path d="M9.28571 0C5.707 0 2.78571 2.92129 2.78571 6.5C2.78571 8.73786 3.92786 10.7269 5.65871 11.8978C2.3465 13.3185 0 16.6029 0 20.4286H1.85714C1.85714 16.315 5.17214 13 9.28571 13C10.5634 13 11.7501 13.3324 12.7957 13.9007C11.726 15.2223 11.1426 16.8712 11.1429 18.5714C11.1429 22.6627 14.4801 26 18.5714 26C22.6627 26 26 22.6627 26 18.5714C26 14.4801 22.6627 11.1429 18.5714 11.1429C17.0068 11.145 15.4829 11.6423 14.2183 12.5636C13.8079 12.3064 13.364 12.09 12.9127 11.8969C13.7965 11.3009 14.5205 10.4972 15.0214 9.55626C15.5223 8.61535 15.7847 7.56593 15.7857 6.5C15.7857 2.92129 12.8644 0 9.28571 0ZM9.28571 1.85714C11.8606 1.85714 13.9286 3.92507 13.9286 6.5C13.9286 9.07493 11.8606 11.1429 9.28571 11.1429C6.71079 11.1429 4.64286 9.07493 4.64286 6.5C4.64286 3.92507 6.71079 1.85714 9.28571 1.85714ZM18.5714 13C21.6599 13 24.1429 15.483 24.1429 18.5714C24.1429 21.6599 21.6599 24.1429 18.5714 24.1429C15.483 24.1429 13 21.6599 13 18.5714C13 15.483 15.483 13 18.5714 13ZM17.6429 14.8571V17.6429H14.8571V19.5H17.6429V22.2857H19.5V19.5H22.2857V17.6429H19.5V14.8571H17.6429Z" fill="#2D2D2D"/>
</svg>
