<svg width="25" height="33" viewBox="0 0 25 33" fill="none" xmlns="http://www.w3.org/2000/svg">
<path d="M23.4029 26.1085L20.6253 21.8568C20.0284 20.9489 19.3302 20.3234 18.3456 20.8935L16.3925 21.938C14.8495 22.9277 13.9264 22.2679 12.9454 21.2185L8.10718 13.2213C7.51033 12.3134 7.63308 11.3676 8.61773 10.7975L11.3387 9.25285C12.3226 8.67701 12.0361 7.79186 11.4392 6.88394L8.35393 2.58577C7.75707 1.67784 6.76875 1.57043 5.78411 2.14052C3.81559 3.28645 2.27194 4.8782 1.41959 7.04377C0.382251 9.68998 1.52432 13.0266 1.99052 14.4312C2.45672 15.8359 3.75156 18.2344 5.33392 20.6587C6.91706 23.0888 8.2719 24.9825 9.40022 26.0063C10.5229 27.0309 13.2691 29.8782 16.2398 30.1997C18.6745 30.4584 21.1558 29.6355 23.1243 28.4895C24.117 27.9359 23.9948 27.0229 23.4029 26.1085Z" fill="#F87C5B"/>
</svg>
