<svg width="26" height="26" viewBox="0 0 26 26" fill="none" xmlns="http://www.w3.org/2000/svg">
<path d="M23.1111 14.4444V21.6667C23.1111 22.4611 22.4611 23.1111 21.6667 23.1111H4.33333C3.53889 23.1111 2.88889 22.4611 2.88889 21.6667V14.4444C2.88889 13.65 2.23889 13 1.44444 13C0.65 13 0 13.65 0 14.4444V23.1111C0 24.7 1.3 26 2.88889 26H23.1111C24.7 26 26 24.7 26 23.1111V14.4444C26 13.65 25.35 13 24.5556 13C23.7611 13 23.1111 13.65 23.1111 14.4444ZM14.4444 13.9678L17.16 11.2522C17.2937 11.1185 17.4525 11.0124 17.6272 10.94C17.8019 10.8677 17.9892 10.8304 18.1783 10.8304C18.3675 10.8304 18.5547 10.8677 18.7295 10.94C18.9042 11.0124 19.0629 11.1185 19.1967 11.2522C19.3304 11.386 19.4365 11.5447 19.5088 11.7194C19.5812 11.8942 19.6185 12.0814 19.6185 12.2706C19.6185 12.4597 19.5812 12.6469 19.5088 12.8217C19.4365 12.9964 19.3304 13.1552 19.1967 13.2889L14.0111 18.4744C13.8775 18.6083 13.7188 18.7146 13.544 18.7871C13.3693 18.8596 13.182 18.8969 12.9928 18.8969C12.8036 18.8969 12.6163 18.8596 12.4415 18.7871C12.2668 18.7146 12.1081 18.6083 11.9744 18.4744L6.78889 13.2889C6.51881 13.0188 6.36708 12.6525 6.36708 12.2706C6.36708 11.8886 6.51881 11.5223 6.78889 11.2522C7.05897 10.9821 7.42527 10.8304 7.80722 10.8304C8.18917 10.8304 8.55548 10.9821 8.82555 11.2522L11.5556 13.9678V1.44444C11.5556 0.65 12.2056 0 13 0C13.7944 0 14.4444 0.65 14.4444 1.44444V13.9678Z" fill="#2D2D2D"/>
</svg>
