<svg width="29" height="24" viewBox="0 0 29 24" fill="none" xmlns="http://www.w3.org/2000/svg">
<path fill-rule="evenodd" clip-rule="evenodd" d="M3.92724 2.66667C3.21024 2.66667 2.61816 3.26971 2.61816 4V20C2.61816 20.7303 3.21024 21.3333 3.92724 21.3333H24.8725C25.5895 21.3333 26.1816 20.7303 26.1816 20V4C26.1816 3.26971 25.5895 2.66667 24.8725 2.66667H3.92724ZM3.43965e-09 4C3.43965e-09 1.79695 1.76427 0 3.92724 0H24.8725C27.0355 0 28.7998 1.79695 28.7998 4V20C28.7998 22.203 27.0355 24 24.8725 24H3.92724C1.76427 24 3.43965e-09 22.203 3.43965e-09 20V4Z" fill="#F87C5B"/>
<path fill-rule="evenodd" clip-rule="evenodd" d="M0.236752 3.23542C0.651357 2.63215 1.46761 2.48544 2.0599 2.90772L14.4 11.7058L26.7401 2.90772C27.3324 2.48544 28.1486 2.63215 28.5632 3.23542C28.9779 3.83868 28.8338 4.67006 28.2415 5.09234L15.1507 14.4257C14.7 14.747 14.1 14.747 13.6493 14.4257L0.558485 5.09234C-0.0338081 4.67006 -0.177852 3.83868 0.236752 3.23542Z" fill="#F87C5B"/>
</svg>
