<svg width="21" height="30" viewBox="0 0 21 30" fill="none" xmlns="http://www.w3.org/2000/svg">
<path d="M10.5 0C4.695 0 0 4.695 0 10.5C0 18.375 10.5 30 10.5 30C10.5 30 21 18.375 21 10.5C21 4.695 16.305 0 10.5 0ZM3 10.5C3 6.36 6.36 3 10.5 3C14.64 3 18 6.36 18 10.5C18 14.82 13.68 21.285 10.5 25.32C7.38 21.315 3 14.775 3 10.5Z" fill="#F87C5B"/>
<path d="M10.5 14.25C12.5711 14.25 14.25 12.5711 14.25 10.5C14.25 8.42893 12.5711 6.75 10.5 6.75C8.42893 6.75 6.75 8.42893 6.75 10.5C6.75 12.5711 8.42893 14.25 10.5 14.25Z" fill="#F87C5B"/>
</svg>
