<svg width="27" height="26" viewBox="0 0 27 26" fill="none" xmlns="http://www.w3.org/2000/svg">
<path d="M17.9264 0.248769L26.7311 8.81676C26.8161 8.89952 26.8838 8.99868 26.93 9.10831C26.9762 9.21795 27 9.33583 27 9.45492C27 9.57402 26.9762 9.69189 26.93 9.80153C26.8838 9.91117 26.8161 10.0103 26.7311 10.0931L17.9264 18.6611C17.8459 18.7409 17.7505 18.8039 17.6458 18.8465C17.541 18.8891 17.4289 18.9104 17.3159 18.9093C17.0824 18.9093 16.8584 18.8159 16.6933 18.6496C16.5282 18.4834 16.4354 18.258 16.4354 18.0229V13.603C8.56991 13.9221 5.25934 18.3538 5.11847 18.5429C5.00639 18.6914 4.85169 18.8017 4.67531 18.8587C4.49892 18.9158 4.30938 18.9169 4.13234 18.862C3.95574 18.8047 3.80163 18.6927 3.69201 18.5421C3.58238 18.3914 3.52284 18.2097 3.52188 18.0229C3.52188 8.54494 11.2583 5.63774 16.4354 5.34229V0.886936C16.4358 0.712621 16.4873 0.542289 16.5833 0.39725C16.6794 0.25221 16.8158 0.138902 16.9755 0.0715005C17.1336 0.00285615 17.3084 -0.0169416 17.4777 0.0146208C17.647 0.0461832 17.8032 0.127682 17.9264 0.248769ZM18.1964 12.7048V15.9075L24.8527 9.45492L18.1964 2.97871V6.205C18.1933 6.43912 18.0996 6.66279 17.9351 6.82835C17.7707 6.99391 17.5485 7.08828 17.3159 7.09134C16.1772 7.09134 6.92636 7.35133 5.47065 15.6948C8.84699 13.0474 13.0386 11.6758 17.3159 11.8185C17.5485 11.8216 17.7707 11.9159 17.9351 12.0815C18.0996 12.2471 18.1933 12.4707 18.1964 12.7048ZM23.154 19.1728C23.3183 19.0072 23.5402 18.9126 23.7727 18.9093C24.0053 18.9123 24.2274 19.0067 24.3919 19.1722C24.5564 19.3378 24.6501 19.5615 24.6532 19.7956V20.3865C24.6532 21.8753 24.0657 23.3031 23.0199 24.3558C21.9741 25.4086 20.5558 26 19.0769 26H5.57631C4.09738 26 2.67902 25.4086 1.63326 24.3558C0.587503 23.3031 0 21.8753 0 20.3865V6.79589C0 5.3071 0.587503 3.87928 1.63326 2.82654C2.67902 1.77381 4.09738 1.18238 5.57631 1.18238H10.8591C11.0926 1.18238 11.3166 1.27577 11.4817 1.44199C11.6468 1.60821 11.7396 1.83365 11.7396 2.06873C11.7396 2.3038 11.6468 2.52925 11.4817 2.69547C11.3166 2.86169 11.0926 2.95507 10.8591 2.95507H5.57631C4.56536 2.95819 3.59671 3.36385 2.88186 4.08347C2.16701 4.80308 1.76404 5.7782 1.76094 6.79589V20.3865C1.76404 21.4042 2.16701 22.3793 2.88186 23.0989C3.59671 23.8185 4.56536 24.2242 5.57631 24.2273H19.0769C20.0878 24.2242 21.0565 23.8185 21.7713 23.0989C22.4862 22.3793 22.8891 21.4042 22.8922 20.3865V19.7956C22.8955 19.5616 22.9895 19.3381 23.154 19.1728Z" fill="#2D2D2D"/>
</svg>
