<svg width="31" height="31" viewBox="0 0 31 31" fill="none" xmlns="http://www.w3.org/2000/svg">
<path d="M22.258 18.6C22.382 17.577 22.475 16.554 22.475 15.5C22.475 14.446 22.382 13.423 22.258 12.4H27.497C27.745 13.392 27.9 14.4305 27.9 15.5C27.9 16.5695 27.745 17.608 27.497 18.6M19.5145 27.218C20.4445 25.4975 21.1575 23.6375 21.6535 21.7H26.226C24.7243 24.2858 22.3419 26.2446 19.5145 27.218ZM19.127 18.6H11.873C11.718 17.577 11.625 16.554 11.625 15.5C11.625 14.446 11.718 13.4075 11.873 12.4H19.127C19.2665 13.4075 19.375 14.446 19.375 15.5C19.375 16.554 19.2665 17.577 19.127 18.6ZM15.5 27.838C14.2135 25.978 13.175 23.9165 12.5395 21.7H18.4605C17.825 23.9165 16.7865 25.978 15.5 27.838ZM9.3 9.3H4.774C6.26023 6.70718 8.64093 4.7453 11.47 3.782C10.54 5.5025 9.8425 7.3625 9.3 9.3ZM4.774 21.7H9.3C9.8425 23.6375 10.54 25.4975 11.47 27.218C8.64687 26.2441 6.26951 24.285 4.774 21.7ZM3.503 18.6C3.255 17.608 3.1 16.5695 3.1 15.5C3.1 14.4305 3.255 13.392 3.503 12.4H8.742C8.618 13.423 8.525 14.446 8.525 15.5C8.525 16.554 8.618 17.577 8.742 18.6M15.5 3.1465C16.7865 5.0065 17.825 7.0835 18.4605 9.3H12.5395C13.175 7.0835 14.2135 5.0065 15.5 3.1465ZM26.226 9.3H21.6535C21.1684 7.38026 20.45 5.52714 19.5145 3.782C22.3665 4.7585 24.738 6.727 26.226 9.3ZM15.5 0C6.9285 0 0 6.975 0 15.5C0 19.6109 1.63303 23.5533 4.53984 26.4602C5.97915 27.8995 7.68786 29.0412 9.56841 29.8201C11.449 30.5991 13.4645 31 15.5 31C19.6109 31 23.5533 29.367 26.4602 26.4602C29.367 23.5533 31 19.6109 31 15.5C31 13.4645 30.5991 11.449 29.8201 9.56841C29.0412 7.68786 27.8995 5.97915 26.4602 4.53984C25.0208 3.10054 23.3121 1.95882 21.4316 1.17987C19.551 0.400919 17.5355 0 15.5 0Z" fill="#F87C5B"/>
</svg>
